<?xml version="1.0" encoding="UTF-8" standalone="no"?>
<!DOCTYPE svg PUBLIC "-//W3C//DTD SVG 1.1//EN"
 "http://www.w3.org/Graphics/SVG/1.1/DTD/svg11.dtd">
<!-- Generated by graphviz version 2.38.0 (20140413.2041)
 -->
<!-- Title: decide_project Pages: 1 -->
<svg width="657pt" height="288pt"
 viewBox="0.00 0.00 656.53 288.00" xmlns="http://www.w3.org/2000/svg" xmlns:xlink="http://www.w3.org/1999/xlink">
<g id="graph0" class="graph" transform="scale(0.462116 0.462116) rotate(0) translate(4 619.22)">
<title>decide_project</title>
<g id="a_graph0"><a xlink:title="How do I decide which packages I need?">
<polygon fill="white" stroke="none" points="-4,4 -4,-619.22 1416.7,-619.22 1416.7,4 -4,4"/>
<text text-anchor="middle" x="706.35" y="-43.6" font-family="Helvetica,sans-Serif" font-size="18.00">Note:</text>
<text text-anchor="middle" x="706.35" y="-25.6" font-family="Helvetica,sans-Serif" font-size="18.00">Green ringed shapes are links on this site and open in this window</text>
<text text-anchor="middle" x="706.35" y="-7.6" font-family="Helvetica,sans-Serif" font-size="18.00">Blue ones are links to external sites and open in a new tab/window.</text>
</a>
</g>
<!-- what -->
<g id="node1" class="node"><title>what</title>
<g id="a_node1"><a xlink:title="You have several possibilities!">
<polygon fill="#70ff4c" stroke="#70ff4c" points="659.857,-615.22 456.799,-615.22 404.563,-527.22 607.621,-527.22 659.857,-615.22"/>
<text text-anchor="middle" x="532.21" y="-574.82" font-family="Helvetica,sans-Serif" font-size="18.00">What are you</text>
<text text-anchor="middle" x="532.21" y="-556.82" font-family="Helvetica,sans-Serif" font-size="18.00">trying to do?</text>
</a>
</g>
</g>
<!-- try -->
<g id="node2" class="node"><title>try</title>
<g id="a_node2"><a xlink:title="Try the Jupyter notebook!">
<polygon fill="none" stroke="black" points="150.63,-469.22 -0.210549,-469.22 -0.210549,-433.22 150.63,-433.22 150.63,-469.22"/>
<text text-anchor="middle" x="75.21" y="-445.82" font-family="Helvetica,sans-Serif" font-size="18.00">Try the notebook</text>
</a>
</g>
</g>
<!-- what&#45;&gt;try -->
<g id="edge1" class="edge"><title>what&#45;&gt;try</title>
<path fill="none" stroke="black" d="M419.882,-553.252C344.915,-540.275 244.772,-519.735 159.21,-491.22 145.094,-486.516 130.208,-480.117 116.952,-473.863"/>
<polygon fill="black" stroke="black" points="118.149,-470.554 107.622,-469.36 115.107,-476.859 118.149,-470.554"/>
</g>
<!-- install -->
<g id="node3" class="node"><title>install</title>
<g id="a_node3"><a xlink:title="Go To Install Jupyter!">
<polygon fill="none" stroke="black" points="340.321,-469.22 168.099,-469.22 168.099,-433.22 340.321,-433.22 340.321,-469.22"/>
<text text-anchor="middle" x="254.21" y="-445.82" font-family="Helvetica,sans-Serif" font-size="18.00">Install the notebook</text>
</a>
</g>
</g>
<!-- what&#45;&gt;install -->
<g id="edge2" class="edge"><title>what&#45;&gt;install</title>
<path fill="none" stroke="black" d="M430.666,-527.119C387.565,-508.824 339.273,-488.326 304.12,-473.405"/>
<polygon fill="black" stroke="black" points="305.141,-470.036 294.569,-469.351 302.406,-476.48 305.141,-470.036"/>
</g>
<!-- team -->
<g id="node4" class="node"><title>team</title>
<g id="a_node4"><a xlink:title="Install for teams, etc!">
<polygon fill="none" stroke="black" points="530.242,-482.22 358.178,-482.22 358.178,-420.22 530.242,-420.22 530.242,-482.22"/>
<text text-anchor="middle" x="444.21" y="-463.82" font-family="Helvetica,sans-Serif" font-size="18.00">Install notebooks</text>
<text text-anchor="middle" x="444.21" y="-445.82" font-family="Helvetica,sans-Serif" font-size="18.00"> for my team, class,</text>
<text text-anchor="middle" x="444.21" y="-427.82" font-family="Helvetica,sans-Serif" font-size="18.00"> or group</text>
</a>
</g>
</g>
<!-- what&#45;&gt;team -->
<g id="edge3" class="edge"><title>what&#45;&gt;team</title>
<path fill="none" stroke="black" d="M499.942,-526.952C491.1,-515.095 481.576,-502.325 472.947,-490.754"/>
<polygon fill="black" stroke="black" points="475.628,-488.494 466.844,-482.57 470.016,-492.679 475.628,-488.494"/>
</g>
<!-- convert -->
<g id="node5" class="node"><title>convert</title>
<g id="a_node5"><a xlink:title="Convert to other formats.">
<polygon fill="none" stroke="black" points="691.8,-482.22 548.62,-482.22 548.62,-420.22 691.8,-420.22 691.8,-482.22"/>
<text text-anchor="middle" x="620.21" y="-463.82" font-family="Helvetica,sans-Serif" font-size="18.00">Convert my</text>
<text text-anchor="middle" x="620.21" y="-445.82" font-family="Helvetica,sans-Serif" font-size="18.00"> notebook file to</text>
<text text-anchor="middle" x="620.21" y="-427.82" font-family="Helvetica,sans-Serif" font-size="18.00"> another format</text>
</a>
</g>
</g>
<!-- what&#45;&gt;convert -->
<g id="edge4" class="edge"><title>what&#45;&gt;convert</title>
<path fill="none" stroke="black" d="M564.478,-526.952C573.32,-515.095 582.844,-502.325 591.473,-490.754"/>
<polygon fill="black" stroke="black" points="594.404,-492.679 597.576,-482.57 588.792,-488.494 594.404,-492.679"/>
</g>
<!-- lang -->
<g id="node6" class="node"><title>lang</title>
<g id="a_node6"><a xlink:title="Use other programming languages.">
<polygon fill="none" stroke="black" points="872.319,-491.22 710.101,-491.22 710.101,-411.22 872.319,-411.22 872.319,-491.22"/>
<text text-anchor="middle" x="791.21" y="-472.82" font-family="Helvetica,sans-Serif" font-size="18.00">Use another</text>
<text text-anchor="middle" x="791.21" y="-454.82" font-family="Helvetica,sans-Serif" font-size="18.00"> programming</text>
<text text-anchor="middle" x="791.21" y="-436.82" font-family="Helvetica,sans-Serif" font-size="18.00"> language such as</text>
<text text-anchor="middle" x="791.21" y="-418.82" font-family="Helvetica,sans-Serif" font-size="18.00"> R or Java</text>
</a>
</g>
</g>
<!-- what&#45;&gt;lang -->
<g id="edge5" class="edge"><title>what&#45;&gt;lang</title>
<path fill="none" stroke="black" d="M611.679,-534.015C639.856,-521.177 671.768,-506.638 700.79,-493.415"/>
<polygon fill="black" stroke="black" points="702.454,-496.504 710.103,-489.173 699.552,-490.134 702.454,-496.504"/>
</g>
<!-- custom -->
<g id="node7" class="node"><title>custom</title>
<g id="a_node7"><a xlink:title="Customize Notebooks.">
<polygon fill="none" stroke="black" points="1143.28,-482.22 993.142,-482.22 993.142,-420.22 1143.28,-420.22 1143.28,-482.22"/>
<text text-anchor="middle" x="1068.21" y="-463.82" font-family="Helvetica,sans-Serif" font-size="18.00">Customize the</text>
<text text-anchor="middle" x="1068.21" y="-445.82" font-family="Helvetica,sans-Serif" font-size="18.00"> notebook for my</text>
<text text-anchor="middle" x="1068.21" y="-427.82" font-family="Helvetica,sans-Serif" font-size="18.00"> needs</text>
</a>
</g>
</g>
<!-- what&#45;&gt;custom -->
<g id="edge6" class="edge"><title>what&#45;&gt;custom</title>
<path fill="none" stroke="black" d="M621.623,-550.536C722.121,-528.411 884.11,-492.75 982.899,-471.002"/>
<polygon fill="black" stroke="black" points="983.834,-474.379 992.848,-468.811 982.329,-467.543 983.834,-474.379"/>
</g>
<!-- noinst -->
<g id="node13" class="node"><title>noinst</title>
<g id="a_node13"><a xlink:title="Don&#39;t wish to install yet?">
<text text-anchor="middle" x="83.21" y="-334.98" font-family="Helvetica,sans-Serif" font-size="18.00">No installation</text>
<text text-anchor="middle" x="83.21" y="-316.98" font-family="Helvetica,sans-Serif" font-size="18.00">needed!</text>
</a>
</g>
</g>
<!-- try&#45;&gt;noinst -->
<g id="edge7" class="edge"><title>try&#45;&gt;noinst</title>
<path fill="none" stroke="black" d="M76.3732,-433.085C77.6078,-414.9 79.5851,-385.774 81.0964,-363.512"/>
<polygon fill="black" stroke="black" points="84.5891,-363.737 81.7746,-353.523 77.6052,-363.263 84.5891,-363.737"/>
</g>
<!-- my -->
<g id="node15" class="node"><title>my</title>
<g id="a_node15"><a xlink:title="Local Installation">
<text text-anchor="middle" x="239.21" y="-325.98" font-family="Helvetica,sans-Serif" font-size="18.00">On my system</text>
</a>
</g>
</g>
<!-- install&#45;&gt;my -->
<g id="edge11" class="edge"><title>install&#45;&gt;my</title>
<path fill="none" stroke="black" d="M252.029,-433.085C249.574,-413.798 245.552,-382.203 242.668,-359.544"/>
<polygon fill="black" stroke="black" points="246.129,-359.013 241.394,-349.535 239.185,-359.897 246.129,-359.013"/>
</g>
<!-- hub -->
<g id="node10" class="node"><title>hub</title>
<g id="a_node10"><a xlink:href="https://github.com/jupyterhub/jupyterhub" xlink:title="Install JupyterHub" target="_blank">
<ellipse fill="none" stroke="blue" cx="444.21" cy="-331.38" rx="76.3029" ry="18.2703"/>
<text text-anchor="middle" x="444.21" y="-325.98" font-family="Helvetica,sans-Serif" font-size="18.00">JupyterHub</text>
</a>
</g>
</g>
<!-- team&#45;&gt;hub -->
<g id="edge13" class="edge"><title>team&#45;&gt;hub</title>
<path fill="none" stroke="black" d="M444.21,-420.179C444.21,-401.683 444.21,-378.143 444.21,-360.094"/>
<polygon fill="black" stroke="black" points="447.71,-359.921 444.21,-349.921 440.71,-359.921 447.71,-359.921"/>
</g>
<!-- nbconvert -->
<g id="node11" class="node"><title>nbconvert</title>
<g id="a_node11"><a xlink:href="https://nbconvert.readthedocs.io/en/latest/" xlink:title="How to convert notebooks" target="_blank">
<ellipse fill="none" stroke="blue" cx="620.21" cy="-331.38" rx="67.42" ry="18.2703"/>
<text text-anchor="middle" x="620.21" y="-325.98" font-family="Helvetica,sans-Serif" font-size="18.00">nbconvert</text>
</a>
</g>
</g>
<!-- convert&#45;&gt;nbconvert -->
<g id="edge14" class="edge"><title>convert&#45;&gt;nbconvert</title>
<path fill="none" stroke="black" d="M620.21,-420.179C620.21,-401.683 620.21,-378.143 620.21,-360.094"/>
<polygon fill="black" stroke="black" points="623.71,-359.921 620.21,-349.921 616.71,-359.921 623.71,-359.921"/>
</g>
<!-- kernel -->
<g id="node12" class="node"><title>kernel</title>
<g id="a_node12"><a xlink:href="../projects/subprojects.html?highlight=jupyterhub#kernels" xlink:title="How to install kernels" target="_top">
<ellipse fill="none" stroke="green" cx="780.21" cy="-331.38" rx="63.8848" ry="43.6818"/>
<text text-anchor="middle" x="780.21" y="-343.98" font-family="Helvetica,sans-Serif" font-size="18.00">Install a</text>
<text text-anchor="middle" x="780.21" y="-325.98" font-family="Helvetica,sans-Serif" font-size="18.00">language</text>
<text text-anchor="middle" x="780.21" y="-307.98" font-family="Helvetica,sans-Serif" font-size="18.00">kernel</text>
</a>
</g>
</g>
<!-- lang&#45;&gt;kernel -->
<g id="edge15" class="edge"><title>lang&#45;&gt;kernel</title>
<path fill="none" stroke="black" d="M787.547,-410.981C786.783,-402.8 785.966,-394.048 785.165,-385.462"/>
<polygon fill="black" stroke="black" points="788.65,-385.135 784.235,-375.504 781.68,-385.786 788.65,-385.135"/>
</g>
<!-- widgets -->
<g id="node16" class="node"><title>widgets</title>
<g id="a_node16"><a xlink:href="https://ipywidgets.readthedocs.io/en/latest/" xlink:title="Install &amp; use ipywidgets" target="_blank">
<ellipse fill="none" stroke="blue" cx="919.21" cy="-331.38" rx="57.0824" ry="18.2703"/>
<text text-anchor="middle" x="919.21" y="-325.98" font-family="Helvetica,sans-Serif" font-size="18.00">Widgets</text>
</a>
</g>
</g>
<!-- custom&#45;&gt;widgets -->
<g id="edge16" class="edge"><title>custom&#45;&gt;widgets</title>
<path fill="none" stroke="black" d="M1030.23,-420.179C1004.58,-399.895 971.258,-373.544 947.84,-355.022"/>
<polygon fill="black" stroke="black" points="949.707,-352.037 939.692,-348.579 945.364,-357.527 949.707,-352.037"/>
</g>
<!-- extend -->
<g id="node17" class="node"><title>extend</title>
<g id="a_node17"><a xlink:href="https://github.com/ipython-contrib/IPython-notebook-extensions" xlink:title="Install &amp; use extensions" target="_blank">
<ellipse fill="none" stroke="blue" cx="1068.21" cy="-331.38" rx="73.6473" ry="18.2703"/>
<text text-anchor="middle" x="1068.21" y="-325.98" font-family="Helvetica,sans-Serif" font-size="18.00">Extensions</text>
</a>
</g>
</g>
<!-- custom&#45;&gt;extend -->
<g id="edge17" class="edge"><title>custom&#45;&gt;extend</title>
<path fill="none" stroke="black" d="M1068.21,-420.179C1068.21,-401.683 1068.21,-378.143 1068.21,-360.094"/>
<polygon fill="black" stroke="black" points="1071.71,-359.921 1068.21,-349.921 1064.71,-359.921 1071.71,-359.921"/>
</g>
<!-- dash -->
<g id="node18" class="node"><title>dash</title>
<g id="a_node18"><a xlink:href="https://github.com/jupyter/dashboards" xlink:title="Install &amp; use dashboards" target="_blank">
<ellipse fill="none" stroke="blue" cx="1240.21" cy="-331.38" rx="79.8877" ry="18.2703"/>
<text text-anchor="middle" x="1240.21" y="-325.98" font-family="Helvetica,sans-Serif" font-size="18.00">Dashboards</text>
</a>
</g>
</g>
<!-- custom&#45;&gt;dash -->
<g id="edge18" class="edge"><title>custom&#45;&gt;dash</title>
<path fill="none" stroke="black" d="M1112.06,-420.179C1141.87,-399.751 1180.67,-373.17 1207.73,-354.629"/>
<polygon fill="black" stroke="black" points="1209.81,-357.45 1216.08,-348.91 1205.85,-351.675 1209.81,-357.45"/>
</g>
<!-- help -->
<g id="node19" class="node"><title>help</title>
<g id="a_node19"><a xlink:href="https://github.com/jupyter/help" xlink:title="Ask on jupyter help" target="_blank">
<ellipse fill="none" stroke="blue" cx="1375.21" cy="-331.38" rx="37.4809" ry="18.2703"/>
<text text-anchor="middle" x="1375.21" y="-325.98" font-family="Helvetica,sans-Serif" font-size="18.00">Help</text>
</a>
</g>
</g>
<!-- custom&#45;&gt;help -->
<g id="edge19" class="edge"><title>custom&#45;&gt;help</title>
<path fill="none" stroke="black" d="M1143.29,-438.345C1197.53,-427.518 1271.15,-408.069 1329.21,-375.22 1338.14,-370.169 1346.71,-363.051 1353.99,-356.066"/>
<polygon fill="black" stroke="black" points="1356.79,-358.213 1361.33,-348.641 1351.81,-353.292 1356.79,-358.213"/>
</g>
<!-- online -->
<g id="node8" class="node"><title>online</title>
<g id="a_node8"><a xlink:href="https://try.jupyter.org/" xlink:title="Try Notebooks Online &#45; without any installation!" target="_blank">
<ellipse fill="none" stroke="blue" cx="100.21" cy="-233.154" rx="69.6053" ry="18.2703"/>
<text text-anchor="middle" x="100.21" y="-227.754" font-family="Helvetica,sans-Serif" font-size="18.00">Try Online</text>
</a>
</g>
</g>
<!-- like -->
<g id="node14" class="node"><title>like</title>
<g id="a_node14"><a xlink:title="You like it!">
<text text-anchor="middle" x="108.21" y="-160.37" font-family="Helvetica,sans-Serif" font-size="18.00">I like it,</text>
<text text-anchor="middle" x="108.21" y="-142.37" font-family="Helvetica,sans-Serif" font-size="18.00">and I wish to install it!</text>
</a>
</g>
</g>
<!-- online&#45;&gt;like -->
<g id="edge9" class="edge"><title>online&#45;&gt;like</title>
<path fill="none" stroke="black" d="M102.106,-214.526C102.921,-206.951 103.898,-197.863 104.829,-189.202"/>
<polygon fill="black" stroke="black" points="108.339,-189.296 105.929,-178.979 101.38,-188.548 108.339,-189.296"/>
</g>
<!-- doinstall -->
<g id="node9" class="node"><title>doinstall</title>
<g id="a_node9"><a xlink:href="../install.html" xlink:title="How to install" target="_top">
<ellipse fill="none" stroke="green" cx="171.21" cy="-80.3848" rx="89.6758" ry="18.2703"/>
<text text-anchor="middle" x="171.21" y="-74.9848" font-family="Helvetica,sans-Serif" font-size="18.00">Install Jupyter</text>
</a>
</g>
</g>
<!-- noinst&#45;&gt;online -->
<g id="edge8" class="edge"><title>noinst&#45;&gt;online</title>
<path fill="none" stroke="black" d="M86.9828,-309.024C89.4387,-295.123 92.6665,-276.853 95.3187,-261.84"/>
<polygon fill="black" stroke="black" points="98.8357,-262.05 97.1289,-251.594 91.9425,-260.833 98.8357,-262.05"/>
</g>
<!-- like&#45;&gt;doinstall -->
<g id="edge10" class="edge"><title>like&#45;&gt;doinstall</title>
<path fill="none" stroke="black" d="M126.095,-134.653C133.523,-125.883 142.201,-115.636 149.952,-106.485"/>
<polygon fill="black" stroke="black" points="152.677,-108.682 156.469,-98.7895 147.335,-104.158 152.677,-108.682"/>
</g>
<!-- my&#45;&gt;doinstall -->
<g id="edge12" class="edge"><title>my&#45;&gt;doinstall</title>
<path fill="none" stroke="black" d="M239.557,-313.151C239.668,-278.137 236.87,-196.735 211.21,-134.77 207.089,-124.818 200.683,-115.052 194.197,-106.65"/>
<polygon fill="black" stroke="black" points="196.791,-104.293 187.765,-98.7452 191.362,-108.711 196.791,-104.293"/>
</g>
</g>
</svg>
